Normalized EMG Linear Envelopes
nRows=27
nColumns=17

endheader
time	        VM	        VL	        RF	       GRA	        TA	   ADDLONG	   SEMIMEM	      BFLH	        GM	        GL	       TFL	   GLUTMAX	   GLUTMED	      PIRI	    OBTINT	        QF	
2.3725	  0.018385	  0.036301	  0.142691	  0.026970	  0.186958	  0.016806	  0.000000	  0.011251	  0.011307	  0.013182	  0.033561	  0.020759	  0.138995	  0.352106	  0.380816	  0.036002	
2.373	  0.018220	  0.036313	  0.142112	  0.026178	  0.187042	  0.016543	  0.000000	  0.010886	  0.011231	  0.013137	  0.032989	  0.020738	  0.138528	  0.350586	  0.384191	  0.036259	
2.3735	  0.018055	  0.036322	  0.141528	  0.025403	  0.187115	  0.016286	  0.000000	  0.010523	  0.011155	  0.013092	  0.032425	  0.020723	  0.138051	  0.349033	  0.387616	  0.036516	
2.374	  0.017891	  0.036328	  0.140938	  0.024643	  0.187174	  0.016034	  0.000000	  0.010164	  0.011077	  0.013048	  0.031868	  0.020712	  0.137565	  0.347450	  0.391090	  0.036771	
2.3745	  0.017726	  0.036330	  0.140341	  0.023899	  0.187218	  0.015787	  0.000000	  0.009807	  0.010998	  0.013005	  0.031319	  0.020705	  0.137069	  0.345837	  0.394608	  0.037025	
2.375	  0.017562	  0.036328	  0.139736	  0.023171	  0.187248	  0.015545	  0.000000	  0.009454	  0.010918	  0.012962	  0.030778	  0.020704	  0.136563	  0.344197	  0.398168	  0.037279	
2.3755	  0.017399	  0.036322	  0.139121	  0.022459	  0.187263	  0.015309	  0.000000	  0.009104	  0.010836	  0.012920	  0.030244	  0.020707	  0.136047	  0.342532	  0.401768	  0.037531	
2.376	  0.017235	  0.036312	  0.138497	  0.021763	  0.187261	  0.015077	  0.000000	  0.008757	  0.010754	  0.012879	  0.029718	  0.020715	  0.135521	  0.340843	  0.405404	  0.037782	
2.3765	  0.017072	  0.036298	  0.137861	  0.021083	  0.187242	  0.014851	  0.000000	  0.008414	  0.010671	  0.012838	  0.029198	  0.020728	  0.134985	  0.339133	  0.409072	  0.038032	
2.377	  0.016910	  0.036279	  0.137213	  0.020418	  0.187205	  0.014630	  0.000000	  0.008074	  0.010586	  0.012798	  0.028686	  0.020747	  0.134439	  0.337403	  0.412771	  0.038281	
2.3775	  0.016747	  0.036256	  0.136552	  0.019769	  0.187151	  0.014415	  0.000000	  0.007738	  0.010500	  0.012758	  0.028181	  0.020770	  0.133883	  0.335655	  0.416496	  0.038529	
2.378	  0.016585	  0.036227	  0.135878	  0.019135	  0.187078	  0.014204	  0.000000	  0.007405	  0.010413	  0.012719	  0.027683	  0.020799	  0.133317	  0.333892	  0.420245	  0.038776	
2.3785	  0.016423	  0.036194	  0.135189	  0.018517	  0.186985	  0.013998	  0.000000	  0.007076	  0.010325	  0.012680	  0.027192	  0.020833	  0.132742	  0.332114	  0.424014	  0.039022	
2.379	  0.016261	  0.036155	  0.134485	  0.017915	  0.186873	  0.013798	  0.000000	  0.006751	  0.010235	  0.012641	  0.026708	  0.020873	  0.132158	  0.330324	  0.427800	  0.039267	
2.3795	  0.016099	  0.036110	  0.133766	  0.017328	  0.186741	  0.013602	  0.000000	  0.006430	  0.010144	  0.012603	  0.026231	  0.020919	  0.131565	  0.328523	  0.431599	  0.039511	
2.38	  0.015938	  0.036060	  0.133030	  0.016757	  0.186588	  0.013411	  0.000000	  0.006113	  0.010052	  0.012565	  0.025760	  0.020970	  0.130964	  0.326714	  0.435408	  0.039754	
2.3805	  0.015776	  0.036004	  0.132278	  0.016201	  0.186414	  0.013225	  0.000000	  0.005801	  0.009958	  0.012527	  0.025296	  0.021026	  0.130354	  0.324897	  0.439224	  0.039996	
2.381	  0.015615	  0.035941	  0.131509	  0.015660	  0.186217	  0.013044	  0.000000	  0.005492	  0.009863	  0.012490	  0.024838	  0.021089	  0.129736	  0.323075	  0.443042	  0.040236	
2.3815	  0.015453	  0.035872	  0.130723	  0.015135	  0.185997	  0.012868	  0.000000	  0.005188	  0.009766	  0.012452	  0.024388	  0.021157	  0.129110	  0.321249	  0.446861	  0.040476	
2.382	  0.015292	  0.035797	  0.129919	  0.014625	  0.185753	  0.012696	  0.000000	  0.004888	  0.009668	  0.012415	  0.023943	  0.021231	  0.128476	  0.319421	  0.450675	  0.040714	
2.3825	  0.015131	  0.035714	  0.129097	  0.014130	  0.185486	  0.012529	  0.000000	  0.004593	  0.009568	  0.012378	  0.023505	  0.021311	  0.127835	  0.317593	  0.454481	  0.040951	
2.383	  0.014970	  0.035624	  0.128257	  0.013650	  0.185194	  0.012367	  0.000000	  0.004302	  0.009466	  0.012341	  0.023074	  0.021397	  0.127187	  0.315767	  0.458276	  0.041187	
2.3835	  0.014808	  0.035528	  0.127399	  0.013186	  0.184876	  0.012209	  0.000000	  0.004016	  0.009363	  0.012304	  0.022648	  0.021489	  0.126532	  0.313944	  0.462055	  0.041421	
2.384	  0.014647	  0.035424	  0.126523	  0.012736	  0.184533	  0.012056	  0.000000	  0.003735	  0.009259	  0.012267	  0.022229	  0.021587	  0.125872	  0.312126	  0.465815	  0.041654	
2.3845	  0.014486	  0.035312	  0.125630	  0.012301	  0.184164	  0.011908	  0.000000	  0.003459	  0.009152	  0.012229	  0.021816	  0.021692	  0.125205	  0.310315	  0.469551	  0.041886	
2.385	  0.014325	  0.035193	  0.124719	  0.011882	  0.183768	  0.011763	  0.000000	  0.003187	  0.009044	  0.012192	  0.021409	  0.021802	  0.124533	  0.308512	  0.473261	  0.042116	
2.3855	  0.014164	  0.035066	  0.123790	  0.011477	  0.183345	  0.011624	  0.000000	  0.002921	  0.008934	  0.012154	  0.021008	  0.021919	  0.123857	  0.306718	  0.476941	  0.042345	
